<svg width="397" height="21" viewBox="0 0 397 21" fill="none" xmlns="http://www.w3.org/2000/svg">
<g clip-path="url(#clip0_132_112)">
<path d="M384.931 16.6168C384.79 16.9757 385.025 17.6936 385.533 17.4492L385.642 16.1357C385.408 16.3037 385.126 16.4717 384.931 16.6245V16.6168Z" fill="#72DCFF"/>
<path d="M389.168 17.9611C389.653 17.1669 389.903 15.8992 389.098 14.96C388.965 16.304 388.66 15.8763 388.433 17.4571C387.925 17.7625 387.362 17.3349 387.331 16.8614C387.221 17.228 386.424 16.808 386.314 17.648C387.26 18.4421 388.261 18.2207 388.933 17.1516C389.223 17.3501 389.137 17.7243 389.168 17.9611Z" fill="#72DCFF"/>
<path d="M346.631 3.55078L347.006 3.70351C346.904 3.61951 346.779 3.57369 346.631 3.55078Z" fill="#72DCFF"/>
<path d="M310.734 3.02393C311.007 2.99339 311.117 2.86357 311.132 2.74902C310.882 2.83302 310.671 2.91702 310.734 3.02393Z" fill="#72DCFF"/>
<path d="M304.588 1.71042C304.721 1.74861 304.83 1.76388 304.947 1.79442C304.807 1.67988 304.666 1.61879 304.588 1.71042Z" fill="#72DCFF"/>
<path d="M346.632 3.55121L345.678 3.14648C345.608 3.55885 346.17 3.45194 346.632 3.55121Z" fill="#72DCFF"/>
<path d="M391.777 14.265C391.981 14.1658 392.129 14.1276 392.317 14.1123C392.129 14.1276 391.965 14.181 391.824 14.2498C391.824 14.2498 391.809 14.2498 391.777 14.265Z" fill="#72DCFF"/>
<path d="M362.502 2.76474H362.791C362.885 2.62729 362.963 2.45929 363.049 2.26074L362.502 2.76474Z" fill="#72DCFF"/>
<path d="M374.737 3.07772C374.463 3.01663 374.299 4.07809 374.158 4.54391C374.346 4.10863 374.557 3.91009 374.807 3.84136C374.823 3.63518 374.807 3.39082 374.737 3.07772Z" fill="#72DCFF"/>
<path d="M393.373 10.4004L393.764 10.5226C393.654 10.492 393.498 10.4233 393.373 10.4004Z" fill="#72DCFF"/>
<path d="M353.786 2.35936C353.77 2.19899 353.723 2.06154 353.676 1.97754C353.676 2.11499 353.715 2.23718 353.786 2.35936Z" fill="#72DCFF"/>
<path d="M14.8696 20.1294C14.8696 20.053 14.8618 20.0072 14.8618 19.9385C14.7989 20.053 14.7754 20.1294 14.8696 20.1294Z" fill="#72DCFF"/>
<path d="M0.585938 15.4259L0.781377 15.3572C0.789195 15.151 0.80483 14.9525 0.797012 14.7539L0.593755 15.4259H0.585938Z" fill="#72DCFF"/>
<path d="M293.348 0.518923C293.348 0.518923 293.379 0.534195 293.395 0.541832C293.684 0.412013 293.52 0.434923 293.348 0.518923Z" fill="#72DCFF"/>
<path d="M190.483 3.99414C191.679 4.91814 188.63 5.28469 190.42 6.29269C190.24 5.88032 191.96 4.56687 190.483 3.99414Z" fill="#72DCFF"/>
<path d="M391.395 14.4099C391.395 14.4099 391.363 14.3794 391.348 14.3564C391.387 14.4404 391.348 14.4252 391.395 14.4099Z" fill="#72DCFF"/>
<path d="M190.42 6.29199L190.608 6.3989C190.53 6.35308 190.491 6.33017 190.42 6.29199Z" fill="#72DCFF"/>
<path d="M267.525 1.6875C267.58 1.87841 267.69 2.01586 267.799 2.15332C267.791 2.04641 267.729 1.90895 267.525 1.6875Z" fill="#72DCFF"/>
<path d="M286.795 2.81031L286.318 2.67285C286.506 2.76449 286.662 2.79503 286.795 2.81031Z" fill="#72DCFF"/>
<path d="M257.573 3.44446C257.315 3.3681 257.221 3.22301 256.869 3.37573C256.9 3.42919 256.939 3.46737 256.979 3.50555C257.104 3.35282 257.268 3.2841 257.573 3.44446Z" fill="#72DCFF"/>
<path d="M247.176 3.71094C247.231 3.79494 247.309 3.84839 247.371 3.92476C247.473 3.90185 247.59 3.87894 247.7 3.85603L247.176 3.71094Z" fill="#72DCFF"/>
<path d="M46.3964 18.2887C46.154 17.9985 45.9977 17.6702 45.8726 17.3418C46.0681 18.0978 44.5514 18.4338 46.3964 18.2887Z" fill="#72DCFF"/>
<path d="M391.848 14.2344C391.754 14.2649 391.668 14.2955 391.551 14.3413C391.512 14.3566 391.457 14.3795 391.395 14.4024L391.527 14.3489C391.621 14.3107 391.739 14.2726 391.817 14.2496C391.832 14.2496 391.832 14.242 391.832 14.242C391.848 14.242 391.77 14.2726 391.848 14.242V14.2344Z" fill="#72DCFF"/>
<path d="M257.37 11.9132L255.721 11.791C256.182 11.8827 256.784 11.9208 257.37 11.9132Z" fill="#72DCFF"/>
<path d="M120.867 15.2266L120.492 15.3717C120.641 15.3869 120.774 15.3564 120.867 15.2266Z" fill="#72DCFF"/>
<path d="M250.827 12.0811C250.522 11.7069 250.201 11.5007 249.881 11.3633C249.818 11.4473 249.74 11.516 249.693 11.6458L250.827 12.0811Z" fill="#72DCFF"/>
<path d="M35.1156 20.3283C36.687 20.2901 35.7958 18.9155 36.0928 18.0984C37.9534 17.6173 37.0075 19.0988 37.672 19.7937C38.829 19.3737 39.6655 18.0373 40.541 18.0603C40.6192 18.2893 40.7912 18.3657 40.6036 18.6635C41.7919 17.4952 44.2779 18.4573 45.6616 16.9912C45.771 17.1133 45.8336 17.2279 45.8648 17.3348C45.599 16.6399 45.5365 15.9221 45.5599 15.4104C46.2635 15.357 46.8264 14.4635 47.1313 15.3799C46.7013 15.3723 46.6779 15.7464 46.4902 16.0366L47.2095 15.609C47.9287 16.9072 46.2244 16.1053 46.2635 17.0904C47.6863 16.6017 49.3124 15.4333 50.4381 15.7617C50.7274 17.0446 47.8739 16.3039 49.3984 17.3959L47.6707 16.9683C49.0622 18.9613 46.631 16.869 47.9209 19.0072C50.1801 19.2897 50.4068 18.2435 52.6583 18.5337C53.1352 17.793 52.4472 17.4723 52.9163 16.7315C56.0433 15.3112 55.5586 19.8853 57.8257 18.0679C58.3964 17.1821 58.5606 15.5326 60.2648 16.3344L59.7567 17.8235C61.9378 17.8846 60.9059 15.6701 63.2277 16.5635C62.8446 17.1592 61.5391 17.121 61.8753 17.2813C63.3997 18.381 62.8837 16.4108 64.0173 16.365L64.3065 17.6555C66.6127 17.3577 69.1222 16.3192 71.6785 15.9832C71.5534 16.3726 71.1313 16.8003 71.7489 17.1744C74.9541 16.3955 78.6596 17.0599 81.8101 17.709L82.9593 16.5406C83.2407 16.5406 83.4909 17.0293 83.2016 17.2584C84.4368 17.6326 83.2329 16.5483 83.8036 16.0824C84.4915 15.9755 84.7417 16.6933 84.3196 17.0446C86.4225 16.0137 90.3469 14.7613 92.6609 15.8763L92.2309 16.2275C94.0134 16.617 94.1228 13.8526 95.7958 14.8377L95.4909 15.0515C99.3293 15.3875 103.512 14.2039 106.498 15.7846C106.991 14.1504 110.305 16.3573 110.462 14.1046C112.69 15.1355 112.08 15.5632 115.183 16.197C116.004 16.2733 116.348 14.7461 117.357 14.4712L117.427 15.6472L118.756 14.3643L119.546 15.7464L120.484 15.4104C120.101 15.357 119.655 14.9141 119.702 14.5704C121.164 13.9824 123.361 15.2577 123.415 15.8533L126.894 14.7308C126.832 15.2043 126.253 15.3875 125.8 15.7083C127.629 14.4406 126.191 16.9377 127.864 15.7693C127.621 15.5097 127.957 15.0668 127.989 14.8224C128.872 15.5021 130.826 15.441 132.257 15.0821L132.015 15.9068C134.634 16.0137 137.495 15.3188 140.426 15.2272C139.363 14.8912 139.551 13.4708 140.403 13.3104L140.794 14.5399C141.318 13.7533 139.879 14.1046 140.981 13.1195C142.084 13.2264 141.771 14.5093 141.153 14.937L142.467 14.4559C142.561 14.8224 142.256 15.0286 142.193 15.5097C142.709 14.7155 144.531 16.6781 145.273 15.3112L145.359 15.6777C148.283 15.5861 149.596 15.1126 151.981 14.9599C151.981 13.8832 152.927 14.0893 153.607 13.1959C155.374 13.4784 157.344 14.2497 159.454 14.0893C160.916 13.5013 159.853 13.1653 160.502 12.5086C160.643 13.4784 162.753 13.3181 161.682 14.0588C164.208 13.8144 164.911 13.7533 168.085 12.8523C167.725 12.4628 167.327 12.3024 167.514 11.9588C168.093 11.7755 168.851 12.3253 168.789 12.7988L168.64 12.9057C172.181 11.3173 177.036 15.4715 179.835 13.341L179.679 13.4479L182.61 12.2872C183.986 12.4093 181.813 13.0508 182.845 13.6235C185.995 11.8824 187.91 13.6923 190.514 12.5239C192.656 15.3417 197.753 12.0886 200.567 13.845L200.387 13.173C201.075 12.4857 201.263 13.5319 201.794 13.677C201.701 13.1501 201.005 13.089 201.435 12.7072C207.447 11.6992 213.92 13.3181 220.127 13.7457C222.394 13.8603 221.307 10.1948 224.208 11.7373L223.434 13.0203C227.952 11.3784 232.768 12.8064 237.2 11.4013C236.942 11.6992 236.942 12.081 236.512 12.0886C237.482 12.9744 240.007 12.0352 239.999 11.2944C240.695 11.3632 240.179 11.9664 240.617 12.333C241.578 12.8446 242.962 11.1035 243.486 11.997C243.572 12.1421 243.228 12.3024 243.056 12.3788C243.658 11.9206 245.933 12.417 245.315 11.3708C247.004 11.829 248.512 10.821 249.865 11.409C250.709 10.2024 252.75 11.9053 252.984 10.2253C252.906 11.9512 255.963 11.5464 257.002 10.7064C256.658 11.2333 257.94 11.2257 257.542 11.9588C258.753 11.9053 259.856 11.5541 259.621 10.6759C261.904 12.6843 264.062 8.90426 265.383 11.5235C268.955 10.5155 272.27 9.80535 275.491 9.33953C275.413 11.0653 271.918 9.58389 272.098 11.3937C275.147 10.6224 276.89 9.1028 279.939 9.45407C280.729 9.67553 279.509 10.2101 279.251 10.5079C282.3 9.73662 285.185 10.5461 287.89 9.55335C287.89 9.71371 287.593 9.89698 287.319 10.0344C287.858 9.96571 288.578 10.2635 288.499 9.48462L287.983 9.70607C287.1 8.58353 290.071 7.29298 290.157 6.68971C289.289 8.95008 292.862 7.20135 291.47 10.065C291.822 9.91226 292.26 9.53044 292.166 9.01117C292.697 9.15626 292.869 9.45407 292.346 10.065C294.261 9.6068 293.565 8.78207 295.309 8.77444C295.309 9.15626 294.957 9.30898 294.785 9.75189C295.652 8.99589 296.528 8.24753 298.006 8.53771C297.92 8.7668 298.099 9.06462 297.654 9.06462C300.187 8.91189 301.938 7.02571 304.729 7.69771C303.931 9.3548 305.682 8.22462 305.847 9.65262L307.332 9.20971L306.722 8.53008C308.028 8.53008 309.177 7.48389 310.303 7.93444L309.341 8.53771L311.788 8.23989L310.396 7.71298C311.71 6.96462 310.232 5.9108 311.976 6.28498C311.624 6.43771 313.289 6.28498 313.977 7.11735C314.618 6.65917 315.282 6.17807 316.252 6.51407C316.51 6.96462 316.064 8.0948 316.236 8.39262C316.862 7.19371 319.293 8.03371 320.09 6.75844C319.824 7.05626 319.817 7.80462 319.91 7.95735L320.434 6.98753C321.044 7.29298 321.13 7.43807 321.044 8.04135C322.866 8.20171 320.45 6.23917 322.623 6.99517C322.451 7.07153 322.537 7.21662 322.185 7.36935C324.359 7.75117 326.383 6.72789 328.385 7.18607C328.979 8.61407 326.641 7.54498 327.322 8.75153C330.198 8.46898 333.271 7.01044 336.062 7.3388L335.546 7.17844C335.929 5.14717 337.625 8.1788 339.032 7.22426C338.688 7.37698 338.579 8.3468 338.673 8.12535C340.58 8.45371 342.574 7.62898 345.466 7.01044L345.107 7.52971C346.224 8.00317 348.062 7.81226 349.273 8.06426C349.641 7.54498 350.329 7.63662 349.914 6.88062C353.612 9.88171 357.083 5.37626 360.351 7.91917C359.952 7.91917 359.397 8.35444 359.71 8.36207L362.54 7.94971C362.344 7.06389 362.188 7.40753 361.609 6.70498C361.977 6.19335 362.79 5.80389 363.493 5.81917C362.204 6.36898 363.462 7.23189 363.994 7.74353C363.908 7.46862 364.111 7.17844 364.072 6.90353C365.495 8.52244 364.377 5.13953 366.363 6.26207L366.237 6.72026C367.004 6.50644 367.723 5.91844 368.528 6.08644C368.825 7.11735 367.707 6.52935 367.621 7.36171C368.755 7.35407 369.959 5.52898 370.944 6.59044C370.443 6.85007 369.748 6.82717 369.247 7.0868C370.318 8.33153 370.459 8.03371 371.28 8.2628L371.202 8.23226L373.086 8.88135L372.617 8.53008C374.204 5.94135 375.525 8.21698 377.573 6.62862C375.572 8.13298 377.19 7.56026 376.948 8.69808C377.409 9.04935 378.097 9.47698 377.862 9.78244C378.824 8.95008 379.246 10.6453 380.614 9.4388C380.614 9.81298 381.521 9.59917 381.193 10.5003C382.326 10.3552 381.036 9.82826 381.193 9.37008C382.138 8.84317 383.139 9.40062 383.929 9.93517C384.093 10.0726 384.257 10.2024 384.429 10.3017C384.64 10.4392 384.922 10.6072 385.187 10.7141C385.742 10.9355 386.36 11.0348 387.103 10.905C389.331 11.1799 390.3 10.2177 392.419 10.8973C392.512 11.3555 392.184 11.5235 391.848 11.6075C391.504 11.6915 391.144 11.6839 391.144 11.6839C391.692 12.7224 392.247 13.0432 393.036 13.4097C392.645 13.4555 392.583 13.7839 392.215 14.0588C392.34 14.1504 392.622 14.0283 392.919 14.0435C393.067 14.0435 393.185 14.0664 393.216 14.1123C393.239 14.1352 393.247 14.1657 393.232 14.2039C393.216 14.2421 393.146 14.2726 393.075 14.2955C392.974 14.2573 392.856 14.2192 392.731 14.1886C392.669 14.1733 392.606 14.1581 392.544 14.1504C392.458 14.1428 392.575 14.1504 392.528 14.1504C392.45 14.1428 392.45 14.1504 392.333 14.1657C392.434 14.1581 392.411 14.1428 392.473 14.1504C392.481 14.1504 392.559 14.1504 392.52 14.1504C392.489 14.1504 392.458 14.1504 392.434 14.1352L392.215 14.0588C392.215 14.0588 392.122 14.0206 392.145 14.0283L392.192 14.0512C392.192 14.0512 392.254 14.0893 392.278 14.1123C392.442 14.3337 392.426 14.7613 392.215 15.1279C391.942 14.937 391.879 14.6621 391.84 14.4101C391.832 14.1504 391.738 13.929 391.621 13.7686C391.676 13.9519 391.395 14.3719 391.082 14.8148C390.777 15.273 390.456 15.7693 390.519 16.3039C390.785 16.3268 391.051 16.3421 391.309 16.3421C390.972 16.5635 390.738 15.6319 390.886 15.3493C391.066 14.7995 391.324 14.7537 391.606 14.853C391.887 14.9523 392.215 15.2043 392.34 15.3417C392.223 15.5173 392.098 15.7083 391.95 15.8839C392.802 16.6475 393.521 16.1053 393.701 15.2959C393.802 14.8988 393.693 14.4864 393.537 14.265C393.349 14.0283 393.2 13.9366 393.138 13.7304C393.708 13.6235 394.232 13.6083 394.842 13.7533C394.545 13.509 394.279 13.3486 393.951 13.2493C393.662 13.1424 393.341 13.0966 393.036 13.0737C393.232 12.6384 393.709 11.7908 394.412 12.3024C394.381 11.5693 394.037 11.4853 393.787 11.409C393.529 11.3173 393.294 11.2868 393.193 10.6453C393.193 10.4697 393.279 10.4392 393.404 10.4621C393.005 10.3246 392.598 10.2559 392.2 10.1795C392.575 10.0268 392.692 9.14862 393.146 9.73662C392.552 8.75153 391.645 8.59117 390.957 8.49189C390.253 8.42317 389.722 8.40789 389.667 7.69771H389.862C388.502 7.3388 388.322 7.5908 388.166 7.94971C388.017 8.32389 387.884 8.79735 386.712 9.03407C386.712 7.98789 386.681 6.93407 386.626 5.87262L385.93 6.85007C385.664 6.72026 385.117 6.46826 385.367 6.05589C384.687 6.26971 384.718 6.4148 384.789 6.55989C384.859 6.70498 384.968 6.86535 384.578 7.14026C384.062 6.48353 383.1 6.40717 382.326 6.3308C381.544 6.2468 380.903 6.08644 380.864 5.14717C380.286 5.96426 382.037 5.9948 380.559 6.42244C380.387 4.3988 378.902 6.59807 377.8 5.5748C378.261 4.57444 379.371 5.2388 378.23 4.20026C377.346 5.88026 375.9 3.63517 374.845 3.90244C374.704 5.28462 372.593 4.34535 370.866 4.72717C370.998 4.26898 367.692 3.8108 366.12 3.27626L366.175 3.04717C365.815 4.43698 364.189 4.11626 362.993 4.37589C363.064 3.53589 363.29 3.20753 363.947 2.85626L362.829 2.83335C362.555 3.27626 362.196 3.50535 361.469 3.65044L361.774 2.61189C360.28 2.6348 358.74 3.77262 356.841 3.03953C356.716 4.01698 358.31 5.78862 356.278 6.40717C356.215 5.88026 356.153 4.97153 356.684 4.76535C356.512 4.83407 356.059 5.19298 355.715 4.96389L356.536 4.08571C355.668 3.68098 356.067 4.8188 355.371 4.72717C355.395 3.97117 354.863 4.17735 354.972 3.58171C355.152 3.51298 355.574 3.90244 355.848 3.61226C355.066 3.46717 354.12 3.00135 353.815 2.42862C353.878 2.85626 353.8 3.44426 353.221 3.53589C351.736 3.57407 352.721 2.62717 351.861 2.23007C351.494 2.74935 350.548 2.19953 350.516 3.32207C350.079 3.31444 350.008 2.78753 349.844 2.48207C349.07 2.96317 346.248 2.59662 347.1 3.80317L347.295 3.87953C347.295 3.87953 347.217 3.90244 347.17 3.92535C344.645 5.03262 341.933 3.26098 339.431 3.74207V3.36789C337.938 3.79553 336.109 3.61989 335.045 4.43698C334.608 4.43698 334.006 3.74971 334.193 3.29917C333.052 3.58935 332.927 4.00935 331.277 3.3908C332.419 2.72644 330.879 2.81044 332.45 2.90207C330.965 2.58135 330.628 1.97807 329.041 3.01662C329.581 2.0468 327.916 1.81007 327.212 2.10026L328.26 2.78753C327.47 2.93262 326.774 2.84862 326.071 2.77226L326.446 1.49698C323.397 -0.0302891 320.989 4.16971 318.66 1.60389C317.862 2.49735 320.317 2.2148 319.606 3.26098C318.206 3.10062 316.737 1.2908 316.299 1.2908C314.376 0.611165 314.532 3.16935 312.531 2.71117C312.789 3.16171 313.047 4.36826 311.561 4.81117C310.162 4.65844 309.818 2.93262 310.694 2.55844C311.03 2.51262 311.194 2.65771 311.178 2.81044C311.624 2.64244 312.218 2.43626 311.655 1.95517L311.483 2.41335C310.787 1.95517 308.864 2.03153 309.302 1.28317C308.254 1.72607 308.864 2.03153 309.646 2.25298C307.848 1.61917 306.847 2.27589 304.995 1.85589C305.292 2.10026 305.573 2.62717 305.276 2.62717C302.563 2.10789 304.095 3.50535 302.266 3.7268C301.211 3.0548 302.61 2.06971 300.781 2.68062C299.647 2.23007 300.523 1.48171 300.961 1.10753C299.295 2.00862 297.81 0.58062 296.849 0.435529L297.724 0.0537109C297.2 0.282802 296.763 0.282802 296.325 0.282802L296.849 1.18389C296.325 1.03117 295.887 1.0388 295.887 0.656984C295.363 1.26026 296.325 2.16135 295.277 2.98607C294.574 2.53553 293.174 3.52062 292.916 2.32171C295.105 2.68826 292.651 1.11517 294.495 0.893711C294.144 1.04644 293.706 1.04644 293.182 0.893711C293.104 0.763893 293.252 0.641711 293.393 0.572984C291.29 -0.465562 292.463 1.94753 290.297 1.9628C290.555 1.28317 289.774 0.687529 289.422 0.840256C290.29 0.840256 289.86 1.9628 289.07 2.49735C287.671 1.99335 287.569 2.91735 286.842 2.87153L287.679 3.10062C287.413 3.78026 286.717 3.70389 285.755 3.94062C285.662 3.41371 286.623 3.5588 286.279 3.33735C285.232 4.55153 283.832 2.15371 282.355 2.98607C281.651 2.54317 282.261 1.7108 281.643 1.41298C279.986 2.32171 279.806 0.519529 278.063 1.28317C278.587 2.18426 278.673 1.95517 277.453 2.87153L280.338 2.16898L278.508 3.52826C279.384 3.52826 280.338 2.91735 280.869 3.06244C280.002 3.82607 280.088 3.59698 280.518 4.34535C279.29 3.00135 278.165 5.19298 276.765 4.29953V2.0468C274.654 1.08462 273.091 3.28389 270.378 2.77226L271.254 3.14644C270.91 4.04753 269.589 3.3068 268.729 3.69626C268.791 2.94026 268.236 2.68062 267.853 2.22244C267.916 2.77989 265.875 2.22244 265.672 3.7268L264.445 2.76462C262.256 2.40571 262.013 4.97153 259.91 4.76535C260.52 3.93298 259.559 3.42135 260.942 2.8028C260.247 2.81044 259.613 2.68826 259.613 3.21517C259.191 2.74935 257.698 4.27662 257.041 3.57407C256.752 3.91007 256.682 4.70426 255.892 4.65844C255.806 4.50571 255.892 4.28426 255.892 4.28426C255.892 4.65844 254.68 4.8188 255.384 5.63589C253.172 3.33735 249.372 5.96426 247.441 3.98644C245.925 4.27662 244.088 4.57444 242.712 4.66607C242.798 4.43698 242.712 4.29189 242.97 4.36062C241.039 3.71153 241.86 6.55226 239.663 5.83444C238.522 4.64317 240.796 5.14717 240.093 4.70426C239.718 2.23007 237.482 5.10898 235.973 3.70389L236.325 3.55117C235.183 2.74171 233.62 4.5668 231.791 4.43698C231.791 4.43698 231.877 4.21553 231.791 4.0628C230.579 5.36098 228.226 5.84971 226.482 6.2468C226.998 5.26171 227.264 5.71226 226.905 4.7348C226.123 4.89516 227.186 6.30789 225.622 6.62862C225.099 6.10935 223.95 5.68171 223.762 4.63553L225.247 4.53626C224.45 3.19989 223.332 4.63553 222.542 4.42171L222.621 3.82607C220.353 4.08571 220.369 5.58244 217.922 5.55189L218.188 5.9948C216.898 7.52207 217.047 5.19298 215.749 6.33844L215.295 4.84171C214.428 5.23117 212.254 6.39189 210.683 6.72026C211.543 5.5748 213.372 4.94862 214.498 4.25371C213.622 4.26898 211.535 4.45226 211.105 5.20826C211.449 5.05553 211.887 4.66607 212.239 4.88753C211.207 6.10171 209.815 6.72789 208.072 6.75844C208.283 3.82608 203.514 6.1628 202.178 3.93298C199.137 5.10898 196.056 3.66571 192.476 3.94826C193.821 6.17807 191.428 4.04753 191.733 6.37662C190.905 6.55226 190.584 6.52171 190.506 6.37662L187.926 5.06317C187.301 4.40644 188.7 4.52098 188.606 4.00171C186.769 3.87953 187.809 3.03953 186.574 2.45917C186.847 3.28389 185.979 3.67335 184.924 3.3908L186.425 4.42171C183.916 5.7428 184.15 2.53553 181.617 3.84898L182.407 3.08535C181.101 3.5588 177.529 3.23044 176.301 5.14717C176.059 4.88753 175.731 4.26135 176.301 4.07044C173.135 3.8948 169.336 6.30026 166.842 5.23117L167.061 4.6508C166.475 4.83407 166.076 5.75807 165.318 5.20826C165.349 4.97153 165.536 4.62789 165.263 4.60498C164.958 4.81117 163.731 5.6588 162.941 5.35335L163.582 4.68898C160.471 4.04753 158.907 6.4148 156.343 6.89589C156.288 5.21589 153.841 4.75771 152.622 4.52862L152.653 4.29189C149.057 4.20789 146.61 5.89553 143.311 6.67444C141.177 4.92571 136.299 6.1628 132.945 5.26171C133.461 5.55189 132.914 6.57517 132.327 6.76607C131.538 6.45298 130.224 8.0108 130.287 6.46826L130.568 6.48353C129.927 4.99444 128.34 5.45262 127.09 5.46026L126.965 7.48389C123.587 4.67371 118.451 8.87371 116.567 6.31553C115.801 6.85008 114.824 6.88062 114.065 7.41517V6.3308C111.869 6.13989 110.774 6.04062 108.093 6.39953L108.609 5.60535C107.084 5.59007 106.811 8.78971 105.411 8.91189L104.927 7.31589C102.277 7.43807 99.5326 6.12462 96.9684 7.69007C96.9997 7.45335 97.0622 6.97989 97.4922 6.90353C96.2414 6.90353 92.614 5.9948 93.1612 8.19407C93.0753 6.7508 90.4173 8.15589 89.0101 8.8508L89.1899 7.78171C88.0329 9.1868 88.0095 9.56098 86.3365 10.0039C85.93 9.88171 85.9534 9.16389 86.4928 9.41589C85.1326 8.91189 85.4922 10.4621 83.8505 9.95807L84.429 9.25553C83.0531 9.22498 83.1782 9.58389 82.4511 10.4086C81.6068 10.8668 79.8323 10.2406 79.5899 9.28607C79.4257 9.88171 78.7065 10.6912 77.8857 10.4468C77.7606 10.0879 78.0498 9.85117 78.1906 9.73662C75.8687 9.1028 74.829 11.1112 73.2029 10.1261C73.156 9.7748 73.0466 9.59916 72.9137 9.49989C74.7352 9.45407 76.2127 9.45407 76.072 9.53807C76.0329 8.56062 74.5476 8.44607 75.6655 7.04098C74.5163 7.82753 72.5619 9.51517 71.1 9.11044C71.0296 9.0188 70.9515 8.92717 70.8968 8.78207L71.0375 8.66753C70.7013 8.58353 70.4121 8.6828 70.1384 8.85844C69.6772 8.71335 69.3801 8.60644 68.9345 8.61407C68.7313 7.81226 67.2303 8.24753 66.4876 8.23226C66.5971 9.30135 65.6277 9.17153 66.5658 10.0192C66.4485 9.95044 66.6987 9.88171 67.1834 9.82062C67.2928 9.78244 67.4179 9.76717 67.4883 9.69844C67.4726 9.72898 67.457 9.75953 67.4414 9.79771C67.9261 9.74426 68.5515 9.69844 69.2629 9.65262C68.7078 10.2177 68.1215 10.7064 67.285 10.1413C66.9332 10.8439 66.5502 11.5693 66.3313 11.913C65.2603 10.4544 63.2902 9.72898 62.9854 8.81262C60.7652 9.50753 57.7163 9.42353 56.3951 11.493C55.7697 11.7755 55.6368 10.9432 55.3867 10.6377C55.7463 10.4163 56.184 10.4315 56.3717 10.1337C55.1209 10.6988 52.6036 10.485 52.3612 11.9053C50.7274 11.3326 53.2055 10.5766 51.0088 10.8897L51.2902 10.4468C46.8498 8.37735 44.3873 14.3261 39.4466 11.6381C39.7906 11.7984 39.9547 11.8748 40.0329 12.1115C34.4902 11.0653 28.7756 13.7763 23.2642 11.9893C21.7085 11.6457 21.5756 12.5544 20.6687 13.2799L20.2857 12.1421L18.7378 13.5395C16.502 14.6086 14.6648 10.8821 11.8661 12.8446L12.2726 13.6083C11.2329 13.509 9.01271 14.2039 9.14561 13.3104C9.04398 13.4555 8.84072 14.1352 8.41857 13.7457L8.35603 13.1424L5.86222 14.2879C3.86873 13.9366 6.06547 11.8824 3.18078 11.8901C2.11759 12.165 0.210099 13.7763 0.632249 14.1657C1.06222 14.1733 1.75016 14.4941 1.81271 15.0973L0.851142 15.4563C0.757331 17.2432 0.0928353 19.0912 2.54756 20.229L4.17362 19.0683L4.75212 19.9083L3.34495 20.0228C4.18144 20.8017 4.65049 20.061 5.19772 19.5417C5.35407 19.9923 5.60424 20.3053 5.94039 20.4581L7.50391 18.6941C7.73062 19.3813 6.8316 20.1068 7.94951 20.4428C8.68437 19.6181 7.1443 18.9155 8.3873 18.3428C9.22378 19.1141 9.02052 19.7861 9.92736 19.053C10.0837 19.5035 9.89609 19.8013 9.52867 20.0228C10.3417 19.4348 11.7332 19.6944 12.1241 18.7323C12.9997 19.6944 14.9384 18.3504 14.9306 20.0381C15.173 19.6257 16.3456 18.6559 17.1117 18.549C15.7984 20.6184 19.9964 18.549 19.715 20.7177C20.6765 18.8621 23.4283 19.7555 25.2264 18.6712C25.1326 18.8163 24.9371 19.1217 24.773 19.0301C25.8127 19.137 26.141 19.6715 26.8212 19.9846C26.8915 18.4879 28.4863 18.0755 29.315 17.1133C30.644 18.5032 28.6192 18.9003 29.0805 20.2672C28.9632 19.0606 31.2303 18.9613 30.7534 17.9763C31.7619 18.8315 31.6055 18.3733 32.1606 19.5952C32.2466 17.7166 33.0518 19.2439 33.8023 18.0603C35.2485 18.9232 34.2401 19.7937 35.7567 19.1675C36.515 19.7097 35.1704 20.4275 35.1704 20.4275L35.1156 20.3283ZM71.6863 15.6013C71.6863 15.6013 71.6863 15.6166 71.6863 15.6243C71.3736 15.6624 71.1 15.693 70.928 15.7159C71.0844 15.693 71.3033 15.6624 71.6785 15.6013H71.6863ZM74.7743 15.4639C74.399 15.4333 73.93 15.4486 73.4375 15.4715C73.3124 15.105 73.414 14.7232 73.7267 14.7232C73.5704 14.9752 74.3052 15.1661 74.7743 15.4563V15.4639ZM67.9417 8.29335C68.4264 8.12535 68.5984 8.32389 68.6687 8.54535C68.442 8.57589 68.1684 8.62171 67.8166 8.70571C67.801 8.74389 67.7775 8.78971 67.7619 8.83553C67.801 8.62935 67.8479 8.43844 67.9339 8.29335H67.9417Z" fill="#72DCFF"/>
<path d="M67.1134 9.7366C67.0431 9.76715 67.004 9.81296 66.918 9.8206C67.0196 9.91224 67.1212 9.9886 67.2229 10.0497C67.2776 9.93515 67.3323 9.81296 67.3792 9.70605C67.2932 9.71369 67.1994 9.72133 67.1134 9.7366Z" fill="#72DCFF"/>
<path d="M347.071 3.72701L347.008 3.7041C347.063 3.74992 347.11 3.7881 347.141 3.85683C347.094 3.80337 347.102 3.77283 347.071 3.72701Z" fill="#72DCFF"/>
<path d="M117.451 15.8833L117.436 15.6084L117.178 15.8604L117.451 15.8833Z" fill="#72DCFF"/>
<path d="M363.994 7.68945C364.025 7.78109 364.08 7.888 364.205 7.972C364.205 7.90327 364.104 7.804 363.994 7.68945Z" fill="#72DCFF"/>
<path d="M371.281 8.20898L372.282 8.65189C371.852 8.40753 371.531 8.28535 371.281 8.20898Z" fill="#72DCFF"/>
<path d="M376.799 9.08709C376.885 8.90381 376.917 8.76636 376.948 8.63654C376.948 8.63654 376.948 8.63654 376.94 8.62891L376.807 9.08709H376.799Z" fill="#72DCFF"/>
<path d="M287.336 9.98047C287.257 9.98047 287.187 10.0034 287.117 10.0339C286.609 10.2554 286.953 10.1637 287.336 9.98047Z" fill="#72DCFF"/>
<path d="M313.993 7.06348C313.711 7.26202 313.438 7.45293 313.141 7.58275C313.617 7.65911 313.985 7.67439 313.993 7.06348Z" fill="#72DCFF"/>
<path d="M257.552 11.9284C257.552 11.9284 257.552 11.9207 257.552 11.9131C257.489 11.9131 257.434 11.9131 257.363 11.9131L257.544 11.9284H257.552Z" fill="#72DCFF"/>
<path d="M311.898 7.57481C312.375 7.78099 312.774 7.73517 313.141 7.57481C312.751 7.50608 312.289 7.40681 311.898 7.57481Z" fill="#72DCFF"/>
<path d="M390.341 14.0967L390.145 14.1425C390.184 14.2036 390.2 14.2647 390.2 14.3105L390.341 14.0967Z" fill="#72DCFF"/>
<path d="M390.2 14.3027L390.059 14.5166C390.153 14.4707 390.231 14.4249 390.2 14.3027Z" fill="#72DCFF"/>
<path d="M389.698 14.975L390.05 14.5244C389.886 14.5931 389.682 14.6466 389.698 14.975Z" fill="#72DCFF"/>
<path d="M390.957 13.585L390.652 13.8446C390.731 13.8064 390.832 13.7224 390.957 13.585Z" fill="#72DCFF"/>
<path d="M389.434 12.661C389.621 12.8137 389.738 13.1421 389.864 13.4323C389.934 13.5774 390.004 13.7148 390.106 13.8294C390.184 13.9363 390.27 14.0127 390.411 14.0432L390.653 13.837C390.364 13.9821 390.34 13.6308 390.161 13.2567C390.02 12.8825 389.809 12.4854 389.434 12.661Z" fill="#72DCFF"/>
<path d="M382.545 4.97152C383.17 5.14715 383.85 5.41443 384.484 5.63588C384.234 5.16243 383.858 4.52097 384.835 4.61261C383.647 3.7497 383.725 4.0017 383.78 4.38352C383.843 4.78061 383.819 5.24643 382.545 4.97152Z" fill="#72DCFF"/>
<path d="M376.573 3.74936C377.629 3.63481 376.612 3.14608 376.683 2.91699C375.987 3.24536 375.831 3.32936 376.573 3.74936Z" fill="#72DCFF"/>
<path d="M333.724 2.84855L333.826 1.87109C333.036 2.01618 333.826 2.25291 333.724 2.84855Z" fill="#72DCFF"/>
<path d="M325.594 7.93374L326.368 8.53701L326.727 7.64355L325.594 7.93374Z" fill="#72DCFF"/>
<path d="M320.715 1.01538L321.059 0.87793L319.746 1.24448L320.715 1.01538Z" fill="#72DCFF"/>
<path d="M249.006 2.71109L249.279 3.90999C249.803 3.6809 249.881 2.32927 249.006 2.71109Z" fill="#72DCFF"/>
<path d="M218.103 4.7954C217.751 4.2074 216.868 3.84086 216.344 4.45177C217.04 4.51286 217.751 4.9634 218.103 4.7954Z" fill="#72DCFF"/>
<path d="M125.276 5.94131L125.886 5.51367L124.721 5.89549L125.276 5.94131Z" fill="#72DCFF"/>
</g>
<defs>
<clipPath id="clip0_132_112">
<rect width="396" height="21" fill="white" transform="translate(0.5)"/>
</clipPath>
</defs>
</svg>
